<svg width="160" height="64" viewBox="0 0 160 64" fill="none" xmlns="http://www.w3.org/2000/svg">
<path d="M28.0662 38.3317C28.0025 38.2068 27.954 38.1106 27.9042 38.0151C27.291 36.8382 25.8135 36.0739 24.5015 36.2547C23.3749 36.4098 22.4361 37.3465 22.1063 38.6689C21.7508 40.0949 22.0075 41.4696 22.5204 42.8062C23.3571 44.9858 24.682 46.85 26.3139 48.4997C27.4426 49.6406 28.3427 49.6213 29.4536 48.4606C30.9958 46.849 32.2474 45.0396 33.1158 42.9773C33.6277 41.7624 34.0045 40.5108 34.0616 39.1821C34.103 38.2225 33.9793 37.2983 33.4332 36.4746C32.7395 35.4287 31.5984 35.1205 30.4761 35.6727C29.7783 36.016 29.2268 36.5287 28.7914 37.1645C28.5418 37.5291 28.3237 37.915 28.0662 38.3317ZM49.7873 44.4587C49.7616 46.2559 49.3566 47.968 48.5291 49.5588C47.1247 52.2579 45.0932 54.3499 42.3732 55.7523C39.6922 57.1346 36.9446 57.2928 34.137 56.1923C32.9975 55.7454 31.8612 55.2841 30.7501 54.7719C28.7312 53.8411 26.7207 53.85 24.6561 54.6231C23.206 55.1662 21.7343 55.6614 20.2474 56.0915C18.7074 56.5371 17.1222 56.6999 15.5155 56.5166C14.1265 56.3581 12.953 55.7429 11.9363 54.8118C10.6396 53.6245 9.60199 52.2381 8.94727 50.6031C8.10814 48.5078 8.30975 46.4864 9.53145 44.5773C10.4879 43.0825 11.7792 41.8898 13.0302 40.6561C13.9396 39.7592 14.8299 38.8383 15.6675 37.8749C16.6339 36.763 17.2111 35.4214 17.6895 34.0429C18.1336 32.7639 18.5368 31.471 18.975 30.19C19.2917 29.2644 19.8726 28.4946 20.4467 27.7143C21.8288 25.8361 23.8002 25.0142 25.977 24.5305C28.5573 23.9569 30.8059 24.6965 32.7248 26.3937C33.9055 27.4378 34.9275 28.6609 36.0264 29.7982C37.8983 31.7353 39.8839 33.5444 42.1084 35.0725C43.2157 35.8332 44.3779 36.515 45.4761 37.2879C47.0473 38.3939 48.373 39.7359 49.182 41.5173C49.6057 42.4505 49.7731 43.4395 49.7873 44.4587Z" fill="#332C22"/>
<path d="M24.4523 17.8109C24.4566 19.2495 24.2017 20.8029 23.5199 22.2624C22.7904 23.8235 21.7349 25.0583 19.9992 25.5387C18.5709 25.9343 17.2523 25.6156 16.0231 24.8478C14.406 23.838 13.3124 22.3724 12.499 20.6869C11.318 18.239 10.8628 15.6494 11.1049 12.9432C11.2479 11.3446 11.6999 9.85032 12.5931 8.49117C14.1334 6.14729 16.9019 5.4848 19.3093 6.91111C20.8711 7.83655 21.9652 9.18756 22.797 10.7656C23.9308 12.9162 24.4709 15.2163 24.4523 17.8109Z" fill="#332C22"/>
<path d="M41.2625 13.5248C41.265 16.456 40.7239 18.9154 39.3906 21.1656C38.6451 22.424 37.6917 23.495 36.3734 24.1839C34.4464 25.1909 32.3249 24.822 30.8121 23.2472C29.6147 22.0007 28.9649 20.4834 28.6168 18.8228C28.0155 15.9518 28.3258 13.1474 29.3425 10.4197C29.8346 9.09948 30.5534 7.89134 31.5866 6.91671C32.5385 6.01864 33.6232 5.3152 34.9748 5.20294C36.6943 5.06011 38.0444 5.78887 39.1238 7.07688C40.2362 8.4045 40.7917 9.97889 41.0675 11.6594C41.1863 12.384 41.2221 13.1222 41.2625 13.5248Z" fill="#332C22"/>
<path d="M0.949219 27.6549C0.973011 26.3457 1.22286 25.115 2.00124 24.0473C3.01821 22.6518 4.44209 22.1371 6.12435 22.2425C7.82651 22.3491 9.2755 23.0844 10.5764 24.1217C12.8937 25.9694 14.4262 28.3283 15.0359 31.247C15.3058 32.5382 15.3259 33.8415 14.8742 35.0992C14.0976 37.2615 12.3262 38.3782 10.0174 38.1995C8.58107 38.0882 7.31678 37.5139 6.15672 36.6963C3.65615 34.9336 2.0462 32.5377 1.23101 29.609C1.05599 28.9803 1.039 28.3075 0.949219 27.6549Z" fill="#332C22"/>
<path d="M53.5594 23.5712C53.172 27.6373 51.5177 30.7805 48.3098 33.0444C47.4188 33.6731 46.4168 34.037 45.3225 34.148C43.4719 34.3356 41.7892 33.2938 41.0935 31.5111C40.4821 29.9439 40.5176 28.3402 40.9023 26.7446C41.6425 23.6732 43.2934 21.1922 45.8879 19.3734C47.0364 18.5683 48.3395 18.2396 49.7406 18.3565C51.3694 18.4924 52.7464 19.7144 53.2225 21.5117C53.415 22.2384 53.4698 23.0011 53.5594 23.5712Z" fill="#332C22"/>
<path d="M129.829 37.0579H133.572L128.637 43.0293L134.007 49.5131H130.152L125.061 43.1964V49.5131H121.663V37.0579H125.061V43.1073L129.829 37.0579Z" fill="#332C22"/>
<path d="M119.313 43.2633C119.313 44.3031 119.172 45.224 118.889 46.0261C118.615 46.8283 118.21 47.5079 117.675 48.0649C117.148 48.6145 116.509 49.0304 115.759 49.3126C115.016 49.5949 114.177 49.736 113.241 49.736C112.365 49.736 111.559 49.5949 110.824 49.3126C110.096 49.0304 109.461 48.6145 108.919 48.0649C108.384 47.5079 107.968 46.8283 107.671 46.0261C107.381 45.224 107.236 44.3031 107.236 43.2633C107.236 41.8818 107.481 40.7121 107.972 39.754C108.462 38.7959 109.16 38.068 110.066 37.5704C110.972 37.0728 112.053 36.824 113.308 36.824C114.474 36.824 115.506 37.0728 116.405 37.5704C117.311 38.068 118.02 38.7959 118.533 39.754C119.053 40.7121 119.313 41.8818 119.313 43.2633ZM110.701 43.2633C110.701 44.0803 110.79 44.7673 110.968 45.3243C111.147 45.8813 111.425 46.301 111.804 46.5832C112.183 46.8654 112.677 47.0065 113.286 47.0065C113.887 47.0065 114.374 46.8654 114.745 46.5832C115.124 46.301 115.399 45.8813 115.57 45.3243C115.748 44.7673 115.837 44.0803 115.837 43.2633C115.837 42.4389 115.748 41.7556 115.57 41.2134C115.399 40.6638 115.124 40.2516 114.745 39.9768C114.366 39.702 113.872 39.5646 113.263 39.5646C112.365 39.5646 111.711 39.8728 111.303 40.4893C110.902 41.1057 110.701 42.0304 110.701 43.2633Z" fill="#332C22"/>
<path d="M104.885 37.0579V49.5131H101.476V39.6091H96.9643V49.5131H93.5664V37.0579H104.885Z" fill="#332C22"/>
<path d="M85.3321 36.8017C87.0032 36.8017 88.2844 37.1656 89.1756 37.8935C90.0669 38.6213 90.5125 39.728 90.5125 41.2134V49.5131H88.1395L87.4822 47.8198H87.3931C87.0366 48.2654 86.6727 48.6293 86.3013 48.9115C85.93 49.1938 85.5029 49.4017 85.0201 49.5354C84.5374 49.6691 83.9506 49.736 83.2599 49.736C82.5246 49.736 81.8636 49.5948 81.2769 49.3126C80.6976 49.0304 80.2408 48.5996 79.9066 48.0203C79.5724 47.4336 79.4053 46.6908 79.4053 45.7922C79.4053 44.4701 79.8695 43.4972 80.7979 42.8733C81.7262 42.242 83.1188 41.8929 84.9756 41.8261L87.1369 41.7593V41.2134C87.1369 40.5598 86.966 40.0807 86.6244 39.7762C86.2828 39.4717 85.8074 39.3195 85.1984 39.3195C84.5968 39.3195 84.0064 39.4049 83.427 39.5757C82.8477 39.7465 82.2684 39.9619 81.6891 40.2219L80.5639 37.9269C81.2249 37.5778 81.9639 37.303 82.7809 37.1025C83.6053 36.9019 84.4557 36.8017 85.3321 36.8017ZM87.1369 43.7423L85.8223 43.7869C84.7231 43.8166 83.9581 44.0134 83.5273 44.3773C83.104 44.7412 82.8923 45.2203 82.8923 45.8144C82.8923 46.3343 83.0445 46.7057 83.3491 46.9285C83.6536 47.1439 84.0509 47.2516 84.5411 47.2516C85.269 47.2516 85.8817 47.0362 86.3793 46.6054C86.8843 46.1747 87.1369 45.5619 87.1369 44.7672V43.7423Z" fill="#332C22"/>
<path d="M76.8414 49.5132H73.399V36.0999H69.4106C69.3215 36.798 69.2249 37.5593 69.121 38.3837C69.017 39.2081 68.9093 40.04 68.7979 40.8792C68.6865 41.7185 68.5676 42.5169 68.4414 43.2745C68.3225 44.032 68.2037 44.6967 68.0849 45.2686C67.8918 46.2193 67.6281 47.0289 67.2939 47.6973C66.9671 48.3583 66.5178 48.8633 65.9459 49.2124C65.3814 49.5615 64.6424 49.736 63.7289 49.736C63.4244 49.736 63.131 49.7137 62.8488 49.6692C62.574 49.6246 62.3177 49.5652 62.0801 49.4909V46.6612C62.2732 46.7281 62.4663 46.7838 62.6594 46.8283C62.8525 46.8655 63.0642 46.884 63.2944 46.884C63.5915 46.884 63.8366 46.7875 64.0297 46.5944C64.2302 46.3938 64.4085 46.0559 64.5644 45.5806C64.7204 45.0978 64.8764 44.4331 65.0323 43.5864C65.0992 43.215 65.1883 42.6914 65.2997 42.0156C65.4111 41.3323 65.5374 40.5339 65.6785 39.6203C65.8196 38.6994 65.9644 37.6967 66.113 36.6124C66.269 35.528 66.4175 34.3991 66.5586 33.2256H76.8414V49.5132Z" fill="#332C22"/>
<path d="M153.37 15.9422C155.041 15.9422 156.322 16.3061 157.214 17.034C158.105 17.7618 158.551 18.8685 158.551 20.3539V28.6537H156.178L155.52 26.9603H155.431C155.075 27.4059 154.711 27.7698 154.339 28.0521C153.968 28.3343 153.541 28.5423 153.058 28.6759C152.575 28.8096 151.989 28.8765 151.298 28.8765C150.563 28.8765 149.902 28.7354 149.315 28.4531C148.736 28.1709 148.279 27.7401 147.945 27.1608C147.61 26.5741 147.443 25.8314 147.443 24.9327C147.443 23.6107 147.908 22.6377 148.836 22.0138C149.764 21.3825 151.157 21.0335 153.014 20.9666L155.175 20.8998V20.3539C155.175 19.7003 155.004 19.2213 154.662 18.9167C154.321 18.6122 153.846 18.46 153.236 18.46C152.635 18.46 152.044 18.5454 151.465 18.7162C150.886 18.887 150.307 19.1024 149.727 19.3624L148.602 17.0674C149.263 16.7183 150.002 16.4435 150.819 16.243C151.643 16.0425 152.494 15.9422 153.37 15.9422ZM155.175 22.8828L153.86 22.9274C152.761 22.9571 151.996 23.1539 151.565 23.5178C151.142 23.8818 150.93 24.3608 150.93 24.955C150.93 25.4749 151.083 25.8462 151.387 26.069C151.692 26.2844 152.089 26.3921 152.579 26.3921C153.307 26.3921 153.92 26.1767 154.417 25.746C154.922 25.3152 155.175 24.7024 155.175 23.9077V22.8828Z" fill="#332C22"/>
<path d="M142.763 16.1985H146.506L141.571 22.1698L146.94 28.6537H143.086L137.995 22.3369V28.6537H134.597V16.1985H137.995V22.2478L142.763 16.1985Z" fill="#332C22"/>
<path d="M123.345 16.1985V20.9889H128.091V16.1985H131.489V28.6537H128.091V23.5178H123.345V28.6537H119.947V16.1985H123.345Z" fill="#332C22"/>
<path d="M107.246 16.1985V21.1226C107.246 21.3751 107.235 21.6945 107.213 22.0807C107.198 22.4595 107.176 22.8457 107.146 23.2393C107.116 23.633 107.087 23.9858 107.057 24.2977C107.027 24.6096 107.005 24.8213 106.99 24.9327L112.739 16.1985H116.827V28.6537H113.541V23.685C113.541 23.2765 113.556 22.8271 113.585 22.3369C113.615 21.8393 113.649 21.3714 113.686 20.9332C113.723 20.495 113.749 20.1645 113.764 19.9417L108.037 28.6537H103.96V16.1985H107.246Z" fill="#332C22"/>
<path d="M102.089 18.7497H98.0119V28.6537H94.614V18.7497H90.5254V16.1985H102.089V18.7497Z" fill="#332C22"/>
<path d="M83.5499 15.9422C85.221 15.9422 86.5021 16.3061 87.3934 17.034C88.2846 17.7618 88.7303 18.8685 88.7303 20.3539V28.6537H86.3573L85.7 26.9603H85.6109C85.2544 27.4059 84.8904 27.7698 84.5191 28.0521C84.1477 28.3343 83.7207 28.5423 83.2379 28.6759C82.7552 28.8096 82.1684 28.8765 81.4777 28.8765C80.7424 28.8765 80.0814 28.7354 79.4947 28.4531C78.9154 28.1709 78.4586 27.7401 78.1244 27.1608C77.7902 26.5741 77.623 25.8314 77.623 24.9327C77.623 23.6107 78.0872 22.6377 79.0156 22.0138C79.944 21.3825 81.3366 21.0335 83.1934 20.9666L85.3546 20.8998V20.3539C85.3546 19.7003 85.1838 19.2213 84.8422 18.9167C84.5005 18.6122 84.0252 18.46 83.4162 18.46C82.8146 18.46 82.2241 18.5454 81.6448 18.7162C81.0655 18.887 80.4862 19.1024 79.9069 19.3624L78.7817 17.0674C79.4427 16.7183 80.1817 16.4435 80.9987 16.243C81.8231 16.0425 82.6735 15.9422 83.5499 15.9422ZM85.3546 22.8828L84.04 22.9274C82.9408 22.9571 82.1758 23.1539 81.7451 23.5178C81.3217 23.8818 81.1101 24.3608 81.1101 24.955C81.1101 25.4749 81.2623 25.8462 81.5668 26.069C81.8713 26.2844 82.2687 26.3921 82.7589 26.3921C83.4867 26.3921 84.0995 26.1767 84.5971 25.746C85.1021 25.3152 85.3546 24.7024 85.3546 23.9077V22.8828Z" fill="#332C22"/>
<path d="M77.1224 28.6537H73.1786L69.3908 22.493L65.603 28.6537H61.9043L67.3075 20.2537L62.2497 12.3661H66.0598L69.569 18.2261L73.0115 12.3661H76.7325L71.6189 20.4431L77.1224 28.6537Z" fill="#332C22"/>
</svg>
